<svg width="34" height="30" viewBox="0 0 34 30" fill="none" xmlns="http://www.w3.org/2000/svg">
<path d="M27.5632 15.167L26.4858 17.0711L24.4401 20.6862L21.2215 26.3739L20.1441 28.278L19.0667 26.3739L20.1441 24.4701L23.3627 18.7821L25.4084 15.167L23.3627 11.552L20.1441 5.86398L18.9712 3.79125L20.0486 1.88745L21.2215 3.96018L24.4401 9.64793L26.4858 13.263L27.5632 15.167Z" fill="#FF9C0C"/>
<path d="M8.6902 15.2106L4.4253 22.7479C4.41781 22.7613 4.40698 22.7724 4.39393 22.7801C4.38088 22.7878 4.36606 22.7919 4.35097 22.7919C4.33589 22.7919 4.32107 22.7878 4.30802 22.7801C4.29496 22.7724 4.28414 22.7613 4.27665 22.7479L3.19133 20.8308L0.0114745 15.2106C0.00395743 15.1974 0 15.1823 0 15.1669C0 15.1516 0.00395743 15.1365 0.0114745 15.1232L4.27665 7.58596C4.28414 7.5726 4.29496 7.5615 4.30802 7.55378C4.32107 7.54606 4.33589 7.54199 4.35097 7.54199C4.36606 7.54199 4.38088 7.54606 4.39393 7.55378C4.40698 7.5615 4.41781 7.5726 4.4253 7.58596L7.55551 13.1184L8.68993 15.1221C8.6978 15.1355 8.70199 15.1508 8.70203 15.1663C8.70208 15.1819 8.69799 15.1972 8.6902 15.2106Z" fill="#B31B1A"/>
<path d="M12.6292 14.9983L10.7199 11.624L9.56067 9.57544L6.35572 3.91162L7.43313 2.00781L10.6381 7.67163L11.7973 9.72015L13.7066 13.0942L14.8795 15.1669L13.8021 17.071L11.7973 20.6137L10.7063 22.5417L7.43313 28.326L6.26025 26.2533L10.6244 18.5409" fill="#FF9C0C"/>
<path d="M34.0001 15.167L30.7815 20.8547L29.7041 22.7588L27.6584 26.3738L25.6064 30H21.1184L20.1438 28.2779L21.2212 26.3738L24.4398 20.6861L26.4855 17.0711L27.5629 15.167L26.4855 13.2629L24.4398 9.64787L21.2212 3.96011L20.0483 1.88738L21.1162 0H25.4177L27.6584 3.96011L29.7041 7.57514L30.7815 9.47922L34.0001 15.167Z" fill="#B31B1A"/>
<path d="M21.3167 15.167L18.0981 20.8547L17.0207 22.7588L15.0159 26.3018L13.9248 28.2298L14.8795 29.9168L14.9267 30H8.38041L7.43311 28.3261L10.7062 22.5417L11.7973 20.6137L13.8021 17.0711L14.8795 15.167L13.7066 13.0942L11.7973 9.72022L10.6381 7.67171L7.43311 2.00788L8.56916 0H14.9791L13.8566 1.98367L15.0159 4.03219L16.9252 7.40649L18.0981 9.47922L21.3167 15.167Z" fill="#B31B1A"/>
</svg>
