<svg width="136" height="30" viewBox="0 0 136 30" fill="none" xmlns="http://www.w3.org/2000/svg">
<g clip-path="url(#clip0_80_10286)">
<path d="M27.5632 15.167L26.4858 17.0711L24.4401 20.6862L21.2215 26.3739L20.1441 28.278L19.0667 26.3739L20.1441 24.4701L23.3627 18.7821L25.4084 15.167L23.3627 11.552L20.1441 5.86398L18.9712 3.79125L20.0486 1.88745L21.2215 3.96018L24.4401 9.64793L26.4858 13.263L27.5632 15.167Z" fill="#FF9C0C"/>
<path d="M8.6902 15.2106L4.4253 22.7479C4.41781 22.7613 4.40698 22.7724 4.39393 22.7801C4.38088 22.7878 4.36606 22.7919 4.35097 22.7919C4.33589 22.7919 4.32107 22.7878 4.30802 22.7801C4.29496 22.7724 4.28414 22.7613 4.27665 22.7479L3.19133 20.8308L0.0114745 15.2106C0.00395743 15.1974 0 15.1823 0 15.1669C0 15.1516 0.00395743 15.1365 0.0114745 15.1232L4.27665 7.58596C4.28414 7.5726 4.29496 7.5615 4.30802 7.55378C4.32107 7.54606 4.33589 7.54199 4.35097 7.54199C4.36606 7.54199 4.38088 7.54606 4.39393 7.55378C4.40698 7.5615 4.41781 7.5726 4.4253 7.58596L7.55551 13.1184L8.68993 15.1221C8.6978 15.1355 8.70199 15.1508 8.70203 15.1663C8.70208 15.1819 8.69799 15.1972 8.6902 15.2106Z" fill="#B31B1A"/>
<path d="M12.6292 14.9983L10.7199 11.624L9.56067 9.57544L6.35572 3.91162L7.43313 2.00781L10.6381 7.67163L11.7973 9.72015L13.7066 13.0942L14.8795 15.1669L13.8021 17.071L11.7973 20.6137L10.7063 22.5417L7.43313 28.326L6.26025 26.2533L10.6244 18.5409" fill="#FF9C0C"/>
<path d="M34.0001 15.167L30.7815 20.8547L29.7041 22.7588L27.6584 26.3738L25.6064 30H21.1184L20.1438 28.2779L21.2212 26.3738L24.4398 20.6861L26.4855 17.0711L27.5629 15.167L26.4855 13.2629L24.4398 9.64787L21.2212 3.96011L20.0483 1.88738L21.1162 0H25.4177L27.6584 3.96011L29.7041 7.57514L30.7815 9.47922L34.0001 15.167Z" fill="#B31B1A"/>
<path d="M21.3167 15.167L18.0981 20.8547L17.0207 22.7588L15.0159 26.3018L13.9248 28.2298L14.8795 29.9168L14.9267 30H8.38041L7.43311 28.3261L10.7062 22.5417L11.7973 20.6137L13.8021 17.0711L14.8795 15.167L13.7066 13.0942L11.7973 9.72022L10.6381 7.67171L7.43311 2.00788L8.56916 0H14.9791L13.8566 1.98367L15.0159 4.03219L16.9252 7.40649L18.0981 9.47922L21.3167 15.167Z" fill="#B31B1A"/>
</g>
<g clip-path="url(#clip1_80_10286)">
<path d="M89.8266 15.2629C89.8266 13.0853 89.8377 10.9077 89.8175 8.73006C89.8132 8.28429 89.9503 8.12578 90.3868 8.14481C91.0158 8.17017 91.6472 8.16919 92.2758 8.14139C92.7455 8.12042 92.8735 8.31892 92.8663 8.77249C92.8432 10.2356 92.873 11.7017 92.847 13.1653C92.8388 13.6423 92.9582 13.8315 93.4645 13.8203C94.8906 13.7897 96.3169 13.7897 97.7433 13.8203C98.2463 13.8305 98.3767 13.6408 98.369 13.1633C98.3449 11.7368 98.3584 10.3102 98.3594 8.8832C98.3594 8.15163 98.3622 8.15163 99.1072 8.15163C99.6814 8.15163 100.256 8.17114 100.83 8.14578C101.263 8.12676 101.413 8.29209 101.41 8.73347C101.395 10.9111 101.403 13.0887 101.403 15.2688C101.403 17.428 101.403 19.587 101.403 21.7456C101.403 22.4747 101.384 22.4918 100.643 22.4937C100.125 22.4937 99.606 22.4937 99.0875 22.4937C98.3623 22.4893 98.3598 22.4879 98.3594 21.7241C98.3594 20.2785 98.3425 18.833 98.369 17.3879C98.3781 16.8968 98.2246 16.7309 97.7361 16.7402C96.3289 16.7665 94.9212 16.7665 93.5131 16.7402C93.0193 16.7309 92.8302 16.8582 92.8432 17.3986C92.8793 18.8993 92.8432 20.4019 92.8639 21.9036C92.8696 22.3396 92.7306 22.5186 92.2921 22.5025C91.6819 22.4796 91.0692 22.4766 90.459 22.5025C89.9888 22.522 89.8098 22.3654 89.8156 21.8592C89.8387 19.6562 89.8266 17.4596 89.8266 15.2629Z" fill="#3E3E3E"/>
<path d="M78.4741 20.8491C78.3047 21.0022 78.2046 21.0749 78.1267 21.1666C76.4172 23.1691 73.3858 22.6341 71.9049 21.1612C69.6883 18.9563 69.7287 14.6259 71.9752 12.4459C73.3891 11.0744 76.3215 10.5487 78.1069 12.4244C78.1931 12.5146 78.2893 12.5946 78.4741 12.7658V9.03238C78.4741 7.5 78.4741 7.5 79.9766 7.5H80.0873C81.5272 7.5 81.5272 7.5 81.5272 8.93094C81.5272 13.1321 81.5272 17.333 81.5272 21.5338C81.5272 22.2727 81.5272 22.2732 80.7818 22.2747C80.1898 22.2747 79.5964 22.2547 79.0054 22.2805C78.5843 22.2991 78.4371 22.1245 78.4698 21.7177C78.491 21.4636 78.4741 21.2071 78.4741 20.8491ZM73.3559 16.7865C73.3709 17.0103 73.3728 17.2366 73.4041 17.4585C73.5739 18.7042 74.5028 19.6825 75.613 19.7937C76.898 19.9225 77.9794 19.2655 78.3014 17.9672C78.4741 17.2713 78.5049 16.4553 78.3235 15.7686C77.8557 13.9968 75.9552 13.3003 74.5451 14.3079C73.7106 14.9025 73.3574 15.7638 73.3559 16.7865Z" fill="#3E3E3E"/>
<path d="M50.898 7.8209C52.2686 7.81261 53.9492 8.3169 55.4031 9.53374C55.7953 9.86197 55.8959 10.119 55.4935 10.5199C55.0604 10.9539 54.6754 11.4392 54.288 11.9182C54.0358 12.2308 53.8284 12.2508 53.505 11.9869C52.7831 11.3895 51.9938 10.9193 51.038 10.7823C48.0119 10.3472 46.0652 12.8731 46.3328 15.5443C46.7033 19.2509 50.255 20.7657 53.2629 18.532C54.0632 17.9375 54.0632 17.938 54.7784 18.6627C55.0272 18.9148 55.2597 19.1865 55.5301 19.4133C55.9329 19.7517 55.9411 20.0097 55.5474 20.4033C53.9593 21.9879 52.0299 22.6014 49.8686 22.4605C46.9396 22.2693 44.7393 20.851 43.6218 18.0643C42.4707 15.1941 42.9158 12.481 44.953 10.1414C46.3814 8.50077 48.2665 7.81163 50.898 7.8209Z" fill="#3E3E3E"/>
<path d="M122.619 20.8145C121.924 21.6212 121.224 22.1928 120.301 22.3839C117.738 22.9146 115.851 21.4032 115.777 18.6774C115.714 16.4261 115.767 14.1719 115.758 11.9196C115.758 11.5392 115.893 11.3739 116.279 11.3832C116.945 11.4012 117.614 11.4134 118.279 11.3832C118.734 11.3627 118.893 11.5124 118.887 11.9874C118.863 13.7329 118.876 15.4794 118.879 17.225C118.873 17.45 118.883 17.6752 118.908 17.899C119.074 19.0973 119.741 19.6942 120.829 19.6337C121.917 19.5733 122.6 18.8602 122.614 17.6741C122.636 15.835 122.621 13.9948 122.621 12.1552C122.621 11.3885 122.621 11.3866 123.397 11.3861C124.027 11.3861 124.657 11.3968 125.286 11.3905C125.608 11.3876 125.75 11.5124 125.749 11.8572C125.742 15.161 125.742 18.465 125.749 21.7694C125.749 22.1308 125.611 22.2796 125.257 22.2742C124.553 22.2635 123.848 22.2562 123.145 22.2766C122.722 22.2888 122.583 22.1016 122.616 21.6997C122.636 21.4612 122.619 21.2164 122.619 20.8145Z" fill="#3E3E3E"/>
<path d="M62.9107 11.353C66.2617 11.353 68.7956 13.853 68.7214 17.126C68.6709 19.4183 67.0895 21.4394 64.751 22.1982C62.095 23.0581 59.0934 21.9329 57.8156 19.5953C56.0648 16.393 57.8589 12.4016 61.4328 11.5715C61.9164 11.4603 62.4174 11.4257 62.9107 11.353ZM62.8895 14.0384C61.2634 14.0466 60.1579 15.2254 60.1704 16.9378C60.1825 18.5726 61.4111 19.8548 62.9463 19.8338C64.5783 19.8114 65.7073 18.6306 65.702 16.9505C65.6972 15.2879 64.4844 14.032 62.8895 14.0403V14.0384Z" fill="#3E3E3E"/>
<path d="M110.514 21.2277C109.157 22.464 107.629 22.7264 105.968 22.2787C104.585 21.9051 103.672 20.7916 103.61 19.4831C103.529 17.7332 104.201 16.6105 105.721 16.0545C107.065 15.5629 108.444 15.5941 109.825 15.8994C110.058 15.9511 110.288 16.0111 110.523 16.0677C110.678 14.9567 109.978 14.0827 108.786 14.0837C107.801 14.0837 106.807 14.2568 105.833 14.4431C105.409 14.5241 105.221 14.4787 105.107 14.0569C104.979 13.5877 104.806 13.1302 104.649 12.6718C104.556 12.4001 104.594 12.2167 104.895 12.0997C106.833 11.3481 108.817 11.1121 110.827 11.6871C112.47 12.1572 113.45 13.4575 113.512 15.2869C113.586 17.462 113.543 19.6416 113.557 21.8188C113.56 22.1514 113.432 22.2923 113.096 22.2845C112.467 22.2699 111.835 22.2572 111.207 22.2899C110.741 22.3143 110.491 22.1923 110.564 21.669C110.582 21.5486 110.538 21.4193 110.514 21.2277ZM108.755 17.5186C108.441 17.5635 108.125 17.5825 107.822 17.6562C106.92 17.8751 106.554 18.3575 106.619 19.1973C106.667 19.8143 107.18 20.2298 108.005 20.322C109.16 20.4512 110.236 19.8972 110.535 19.0222C110.824 18.18 110.646 17.8478 109.799 17.6771C109.457 17.6079 109.107 17.5713 108.755 17.5186Z" fill="#3E3E3E"/>
<path d="M132.056 11.2886C133.175 11.4256 134.259 11.773 135.253 12.3128C135.641 12.5235 135.776 12.7293 135.518 13.1419C135.222 13.6154 135.071 14.3299 134.66 14.5348C134.333 14.6972 133.722 14.2051 133.216 14.0861C132.633 13.9485 132.028 13.8422 131.433 13.8461C131.208 13.8461 130.838 14.1787 130.807 14.4007C130.776 14.6226 131.03 15.0078 131.255 15.1166C132.003 15.4785 132.795 15.7423 133.565 16.0545C133.858 16.1695 134.143 16.3039 134.419 16.4568C135.568 17.1079 136.124 18.0833 135.979 19.4328C135.84 20.7238 135.199 21.6631 133.988 22.1031C131.762 22.9122 129.729 22.3664 127.845 21.0603C127.739 20.9872 127.675 20.6775 127.738 20.5585C128.002 20.0649 128.327 19.6055 128.619 19.128C128.84 18.7676 129.042 19.0305 129.27 19.1197C130.088 19.4484 130.899 19.8025 131.739 20.0571C132.066 20.1546 132.484 20.0673 132.821 19.9498C133.018 19.8806 133.24 19.5962 133.262 19.388C133.284 19.1797 133.121 18.8608 132.943 18.7539C132.569 18.5272 132.135 18.3969 131.719 18.2453C131.145 18.0365 130.546 17.8873 129.991 17.6361C128.78 17.0874 128.035 16.194 128.066 14.7645C128.098 13.335 128.749 12.3108 130.028 11.7724C130.659 11.5046 131.377 11.4432 132.056 11.2886Z" fill="#3E3E3E"/>
<path d="M87.1231 17.1835C87.1231 18.7398 87.1086 20.2961 87.1313 21.8519C87.138 22.3396 86.9777 22.5254 86.4897 22.4971C85.8997 22.463 85.3059 22.4825 84.7144 22.4922C84.3621 22.4981 84.2129 22.3386 84.2139 21.985C84.2187 18.7986 84.2187 15.6123 84.2139 12.4259C84.2139 12.0357 84.377 11.8928 84.75 11.9026C85.3602 11.9187 85.9719 11.926 86.5812 11.9026C86.9989 11.885 87.1303 12.0582 87.1269 12.4634C87.1149 14.0353 87.1231 15.6087 87.1231 17.1835Z" fill="#3E3E3E"/>
<path d="M85.5853 10.6101C85.3664 10.5677 84.9597 10.6101 84.8298 10.4399C84.5116 10.0185 84.1396 9.50009 84.1329 9.01531C84.1266 8.55491 84.4866 8.02331 84.8225 7.64972C84.9958 7.45757 85.4679 7.50975 85.8048 7.51024C86.0642 7.51024 86.4444 7.51414 86.5594 7.67362C86.8592 8.08817 87.1797 8.57296 87.2279 9.06067C87.264 9.41865 86.8496 9.8054 86.6985 10.2039C86.4829 10.775 86.0165 10.4906 85.5853 10.6101Z" fill="#3E3E3E"/>
</g>
<defs>
<clipPath id="clip0_80_10286">
<rect width="34" height="30" fill="white"/>
</clipPath>
<clipPath id="clip1_80_10286">
<rect width="93" height="15" fill="white" transform="translate(43 7.5)"/>
</clipPath>
</defs>
</svg>
